<svg width="24" height="24" viewBox="0 0 24 24" fill="none" xmlns="http://www.w3.org/2000/svg">
<path d="M1.99963 9.49804C1.99965 8.38547 2.33716 7.29908 2.96757 6.38235C3.59797 5.46562 4.49163 4.76168 5.53051 4.36351C6.56938 3.96533 7.7046 3.89165 8.78623 4.15219C9.86786 4.41274 10.845 4.99525 11.5886 5.8228C11.641 5.8788 11.7043 5.92345 11.7747 5.95397C11.845 5.9845 11.9209 6.00025 11.9975 6.00025C12.0742 6.00025 12.1501 5.9845 12.2204 5.95397C12.2908 5.92345 12.3541 5.8788 12.4065 5.8228C13.1477 4.98988 14.1251 4.40247 15.2085 4.13875C16.2919 3.87504 17.4299 3.94754 18.4711 4.34659C19.5122 4.74565 20.4072 5.45233 21.0368 6.37259C21.6664 7.29285 22.0008 8.38303 21.9955 9.49804C21.9955 11.7876 20.4958 13.4972 18.9961 14.9969L13.5052 20.3088C13.3189 20.5227 13.0892 20.6946 12.8314 20.813C12.5736 20.9313 12.2935 20.9935 12.0098 20.9953C11.7261 20.9971 11.4453 20.9385 11.186 20.8234C10.9267 20.7083 10.6948 20.5394 10.5059 20.3278L4.99901 14.9969C3.49932 13.4972 1.99963 11.7976 1.99963 9.49804Z" fill="#FF6F0F" stroke="#FF6F0F" stroke-width="1.99958" stroke-linecap="round" stroke-linejoin="round"/>
</svg>
