<svg width="18" height="18" viewBox="0 0 18 18" fill="none" xmlns="http://www.w3.org/2000/svg">
<path d="M1.49866 7.11854C1.49867 6.28468 1.75163 5.47044 2.22411 4.78337C2.69659 4.09629 3.36638 3.5687 4.145 3.27027C4.92363 2.97184 5.77446 2.91662 6.58513 3.11189C7.3958 3.30717 8.12816 3.74376 8.6855 4.36399C8.72475 4.40597 8.77221 4.43943 8.82493 4.46231C8.87765 4.48518 8.93451 4.49699 8.99198 4.49699C9.04944 4.49699 9.1063 4.48518 9.15902 4.46231C9.21174 4.43943 9.2592 4.40597 9.29845 4.36399C9.85404 3.73972 10.5866 3.29947 11.3986 3.10182C12.2105 2.90417 13.0635 2.95851 13.8438 3.25759C14.6241 3.55668 15.2949 4.08633 15.7668 4.77605C16.2386 5.46577 16.4893 6.28285 16.4853 7.11854C16.4853 8.83451 15.3613 10.1159 14.2373 11.2399L10.122 15.2211C9.98234 15.3814 9.81019 15.5102 9.61695 15.599C9.42371 15.6877 9.21381 15.7342 9.00118 15.7356C8.78856 15.7369 8.57808 15.693 8.38373 15.6068C8.18939 15.5205 8.01562 15.3939 7.87397 15.2353L3.74665 11.2399C2.62265 10.1159 1.49866 8.842 1.49866 7.11854Z" fill="#FF6F0F" stroke="#FF6F0F" stroke-width="1.49866" stroke-linecap="round" stroke-linejoin="round"/>
</svg>
