<svg width="20" height="20" viewBox="0 0 20 20" fill="none" xmlns="http://www.w3.org/2000/svg">
<path d="M12.499 1.6665H4.99959C4.5576 1.6665 4.13372 1.84208 3.82118 2.15462C3.50865 2.46715 3.33307 2.89104 3.33307 3.33303V16.6652C3.33307 17.1072 3.50865 17.5311 3.82118 17.8436C4.13372 18.1562 4.5576 18.3317 4.99959 18.3317H14.9987C15.4407 18.3317 15.8646 18.1562 16.1772 17.8436C16.4897 17.5311 16.6653 17.1072 16.6653 16.6652V5.83281L12.499 1.6665Z" stroke="white" stroke-width="1.66652" stroke-linecap="round" stroke-linejoin="round"/>
<path d="M11.6656 1.6665V4.99984C11.6656 5.44186 11.8412 5.86579 12.1538 6.17835C12.4664 6.49091 12.8903 6.6665 13.3323 6.6665H16.6656" stroke="white" stroke-width="1.66652" stroke-linecap="round" stroke-linejoin="round"/>
<path d="M8.33274 7.49927H6.66608" stroke="white" stroke-width="1.66652" stroke-linecap="round" stroke-linejoin="round"/>
<path d="M13.3327 10.8323H6.66608" stroke="white" stroke-width="1.66652" stroke-linecap="round" stroke-linejoin="round"/>
<path d="M13.3327 14.1655H6.66608" stroke="white" stroke-width="1.66652" stroke-linecap="round" stroke-linejoin="round"/>
</svg>
