<svg width="24" height="24" viewBox="0 0 24 24" fill="none" xmlns="http://www.w3.org/2000/svg">
<path d="M1.99957 9.49804C1.99959 8.38547 2.3371 7.29908 2.9675 6.38235C3.59791 5.46562 4.49157 4.76168 5.53044 4.36351C6.56932 3.96533 7.70454 3.89165 8.78617 4.15219C9.8678 4.41274 10.845 4.99525 11.5886 5.8228C11.6409 5.8788 11.7043 5.92345 11.7746 5.95397C11.8449 5.9845 11.9208 6.00025 11.9975 6.00025C12.0742 6.00025 12.15 5.9845 12.2204 5.95397C12.2907 5.92345 12.354 5.8788 12.4064 5.8228C13.1477 4.98988 14.1251 4.40247 15.2085 4.13875C16.2918 3.87504 17.4298 3.94754 18.471 4.34659C19.5122 4.74565 20.4071 5.45233 21.0367 6.37259C21.6663 7.29285 22.0007 8.38303 21.9954 9.49804C21.9954 11.7876 20.4957 13.4972 18.996 14.9969L13.5052 20.3088C13.3189 20.5227 13.0892 20.6946 12.8314 20.813C12.5735 20.9313 12.2935 20.9935 12.0098 20.9953C11.7261 20.9971 11.4453 20.9385 11.1859 20.8234C10.9266 20.7083 10.6948 20.5394 10.5058 20.3278L4.99895 14.9969C3.49926 13.4972 1.99957 11.7976 1.99957 9.49804Z" stroke="#99A1AF" stroke-width="1.99958" stroke-linecap="round" stroke-linejoin="round"/>
</svg>
