<svg width="17" height="17" viewBox="0 0 17 17" fill="none" xmlns="http://www.w3.org/2000/svg">
<g clip-path="url(#clip0_2_619)">
<path d="M1.41541 6.72313C1.41542 5.9356 1.65432 5.1666 2.10056 4.51769C2.54679 3.86879 3.17937 3.3705 3.91473 3.08865C4.6501 2.80681 5.45367 2.75465 6.2193 2.93908C6.98493 3.1235 7.67661 3.53584 8.20298 4.12162C8.24005 4.16126 8.28487 4.19286 8.33466 4.21447C8.38445 4.23607 8.43815 4.24722 8.49243 4.24722C8.5467 4.24722 8.6004 4.23607 8.65019 4.21447C8.69998 4.19286 8.7448 4.16126 8.78188 4.12162C9.3066 3.53203 9.99843 3.11623 10.7653 2.92956C11.5322 2.7429 12.3377 2.79421 13.0747 3.07668C13.8117 3.35915 14.4452 3.85938 14.8908 4.51078C15.3365 5.16219 15.5732 5.93387 15.5695 6.72313C15.5695 8.34377 14.5079 9.55394 13.4463 10.6155L9.55964 14.3755C9.42778 14.527 9.26519 14.6486 9.08268 14.7324C8.90018 14.8162 8.70194 14.8602 8.50113 14.8615C8.30031 14.8627 8.10153 14.8213 7.91798 14.7398C7.73443 14.6583 7.57031 14.5387 7.43654 14.389L3.53851 10.6155C2.47696 9.55394 1.41541 8.35085 1.41541 6.72313Z" fill="white" stroke="white" stroke-width="1.4154" stroke-linecap="round" stroke-linejoin="round"/>
</g>
<defs>
<clipPath id="clip0_2_619">
<rect width="16.9849" height="16.9849" fill="white"/>
</clipPath>
</defs>
</svg>
